<svg xmlns="http://www.w3.org/2000/svg" width="46" height="68"><defs><style>.cls-1{fill:#4d4f54;fill-rule:evenodd}</style></defs><path id="R" class="cls-1" d="M26.658 26.4h6.015l-3.184-6.242a8.773 8.773 0 0 0 3.323-2.511 8.142 8.142 0 0 0 1.67-3.759 6.371 6.371 0 0 0-.391-3.9 5.384 5.384 0 0 0-2.614-2.554 10.254 10.254 0 0 0-4.524-.894h-9.08L14.372 26.4h5.618l.931-5.278h3.064zm2.15-12.513a3.253 3.253 0 0 1-1.257 2.142 4.5 4.5 0 0 1-2.743.752h-3.122l1.026-5.817h3.121a3.351 3.351 0 0 1 2.475.766 2.341 2.341 0 0 1 .5 2.156z"/><path id="RP" class="cls-1" d="M15.112 64.046h6.111L17.989 57.7a8.912 8.912 0 0 0 3.375-2.551 8.27 8.27 0 0 0 1.7-3.819 6.472 6.472 0 0 0-.4-3.963 5.469 5.469 0 0 0-2.655-2.594 10.416 10.416 0 0 0-4.6-.908h-9.22L2.632 64.046h5.707l.945-5.361H12.4zM17.3 51.335a3.3 3.3 0 0 1-1.277 2.176 4.573 4.573 0 0 1-2.786.764h-3.175l1.038-5.909h3.171a3.4 3.4 0 0 1 2.514.778 2.378 2.378 0 0 1 .508 2.191zm19.447-7.465h-9.228l-3.558 20.176h5.707l.93-5.275h3.517a12.669 12.669 0 0 0 4.916-.908 9.1 9.1 0 0 0 3.568-2.58 8.315 8.315 0 0 0 1.792-3.949 6.472 6.472 0 0 0-.4-3.963 5.469 5.469 0 0 0-2.655-2.594 10.416 10.416 0 0 0-4.6-.908zm-2.185 10.405h-3.171l1.042-5.909H35.6a3.4 3.4 0 0 1 2.514.778 2.378 2.378 0 0 1 .508 2.191 3.3 3.3 0 0 1-1.277 2.176 4.573 4.573 0 0 1-2.786.764z"/></svg>