<svg version="1" xmlns="http://www.w3.org/2000/svg" width="682.667" height="682.667" viewBox="0 0 512.000000 512.000000"><path d="M110.5 180.2c-.2 1.2-6.8 38.3-14.5 82.3s-14.2 81-14.5 82.2L81 347h24c13.2 0 24-.2 24-.5 0-1.1 7.1-41.1 7.6-42.8.5-1.5 2-1.7 13.2-1.7h12.7l11.5 22.5 11.5 22.5h25.3c13.8 0 25.2-.3 25.2-.7 0-.3-6-12.3-13.2-26.6-7.3-14.3-12.8-26.1-12.2-26.4 4.9-1.7 15.2-9.1 21.5-15.3 8.7-8.6 14.3-17.9 17.5-29.1 8.3-28.6-.4-51.8-23.8-62.9-14.5-6.9-16.7-7.2-68.5-7.7l-46.2-.5-.6 2.4zm79.3 37.3c9.2 2.8 14.2 9.1 14.2 17.9 0 6.1-3.2 14.5-7.3 19.2-7.6 8.6-15.1 10.7-37.7 10.2l-15.6-.3L147 244c2-11.3 4-22.2 4.4-24.3l.7-3.7h16.3c11.7 0 17.7.4 21.4 1.5zM288.6 179.2c-.3.7-6.8 37.5-14.5 81.8-7.8 44.3-14.4 81.7-14.7 83.3l-.6 2.7h47.9l3.1-17.8c1.7-9.7 3.4-19.6 3.8-22l.7-4.2h15.6c29.9-.1 42.6-2.3 59.6-10.5 18.3-8.8 30.5-22.1 36.8-40.4 4.2-11.9 5-28.5 1.9-38.8-4.9-16.1-18.1-27.2-38.4-32.5-7.7-1.9-11.4-2.1-54.5-2.5-38.2-.4-46.4-.2-46.7.9zm79.4 38.4c12.9 3.8 17.1 15.9 10.8 30.7-1.2 2.7-4 6.5-6.5 8.7-7.2 6.3-11.2 7.3-32.6 7.8l-18.8.4.5-2.4c.3-1.2 2.2-11.8 4.2-23.3 1.9-11.6 3.7-21.6 3.9-22.3.7-1.9 31.6-1.7 38.5.4z"/></svg>